<?xml version="1.0" encoding="UTF-8" standalone="no"?>
<svg
   xmlns:dc="http://purl.org/dc/elements/1.1/"
   xmlns:cc="http://creativecommons.org/ns#"
   xmlns:rdf="http://www.w3.org/1999/02/22-rdf-syntax-ns#"
   xmlns:svg="http://www.w3.org/2000/svg"
   xmlns="http://www.w3.org/2000/svg"
   xmlns:sodipodi="http://sodipodi.sourceforge.net/DTD/sodipodi-0.dtd"
   xmlns:inkscape="http://www.inkscape.org/namespaces/inkscape"
   inkscape:version="1.0beta2 (unknown)"
   sodipodi:docname="section.svg"
   viewBox="0 0 1056 816"
   height="816"
   width="1056"
   xml:space="preserve"
   id="svg2"
   version="1.1"><metadata
     id="metadata8"><rdf:RDF><cc:Work
         rdf:about=""><dc:format>image/svg+xml</dc:format><dc:type
           rdf:resource="http://purl.org/dc/dcmitype/StillImage" /><dc:title></dc:title></cc:Work></rdf:RDF></metadata><defs
     id="defs6"><clipPath
       id="clipPath18"
       clipPathUnits="userSpaceOnUse"><path
         inkscape:connector-curvature="0"
         id="path16"
         clip-rule="evenodd"
         d="M 1.1802e-5,0 H 792.00001 V 612 H 1.1802e-5 Z" /></clipPath></defs><sodipodi:namedview
     inkscape:current-layer="g10"
     inkscape:window-maximized="1"
     inkscape:window-y="0"
     inkscape:window-x="1280"
     inkscape:cy="474.40369"
     inkscape:cx="435.37453"
     inkscape:zoom="0.78596305"
     showgrid="false"
     id="namedview4"
     inkscape:window-height="1048"
     inkscape:window-width="1920"
     inkscape:pageshadow="2"
     inkscape:pageopacity="0"
     guidetolerance="10"
     gridtolerance="10"
     objecttolerance="10"
     borderopacity="1"
     inkscape:document-rotation="0"
     bordercolor="#666666"
     pagecolor="#ffffff" /><g
     transform="matrix(1.3333333,0,0,-1.3333333,0,816)"
     inkscape:label="pcf cross section"
     inkscape:groupmode="layer"
     id="g10"><g
       id="g12"><g
         clip-path="url(#clipPath18)"
         id="g14" /></g><path
       inkscape:connector-curvature="0"
       id="path20"
       style="fill:none;stroke:#000000;stroke-width:0.96;stroke-linecap:butt;stroke-linejoin:miter;stroke-miterlimit:10;stroke-dasharray:none;stroke-opacity:1"
       d="m 80.28,343.08 c 0,109.55 89.16,198.36 199.14,198.36 109.98,0 199.14,-88.81 199.14,-198.36 0,-109.55 -89.16,-198.36 -199.14,-198.36 -109.98,0 -199.14,88.81 -199.14,198.36 z" /><path
       inkscape:connector-curvature="0"
       id="path22"
       style="fill:none;stroke:#000000;stroke-width:0.96;stroke-linecap:butt;stroke-linejoin:miter;stroke-miterlimit:10;stroke-dasharray:none;stroke-opacity:1"
       d="m 120,343.08 c 0,88.01 71.19,159.36 159,159.36 87.81,0 159,-71.35 159,-159.36 0,-88.01 -71.19,-159.36 -159,-159.36 -87.81,0 -159,71.35 -159,159.36 z" /><path
       inkscape:connector-curvature="0"
       id="path24"
       style="fill:none;stroke:#000000;stroke-width:0.96;stroke-linecap:butt;stroke-linejoin:miter;stroke-miterlimit:10;stroke-dasharray:none;stroke-opacity:1"
       d="m 159.72,343.08 c 0,66.08 53.56,119.64 119.64,119.64 C 345.44,462.72 399,409.16 399,343.08 399,277 345.44,223.44 279.36,223.44 213.28,223.44 159.72,277 159.72,343.08 Z" /><path
       inkscape:connector-curvature="0"
       id="path26"
       style="fill:none;stroke:#000000;stroke-width:0.96;stroke-linecap:butt;stroke-linejoin:miter;stroke-miterlimit:10;stroke-dasharray:none;stroke-opacity:1"
       d="m 153.72,343.08 c 0,69.39 56.41,125.64 126,125.64 69.59,0 126,-56.25 126,-125.64 0,-69.39 -56.41,-125.64 -126,-125.64 -69.59,0 -126,56.25 -126,125.64 z" /><path
       inkscape:connector-curvature="0"
       id="path28"
       style="fill:none;stroke:#000000;stroke-width:0.96;stroke-linecap:butt;stroke-linejoin:miter;stroke-miterlimit:10;stroke-dasharray:none;stroke-opacity:1"
       d="m 216.72,426.36 c 0,8.48 6.72,15.36 15,15.36 8.28,0 15,-6.88 15,-15.36 0,-8.48 -6.72,-15.36 -15,-15.36 -8.28,0 -15,6.88 -15,15.36 z" /><path
       inkscape:connector-curvature="0"
       id="path30"
       style="fill:none;stroke:#000000;stroke-width:0.96;stroke-linecap:butt;stroke-linejoin:miter;stroke-miterlimit:10;stroke-dasharray:none;stroke-opacity:1"
       d="m 312.72,426.36 c 0,8.48 6.72,15.36 15,15.36 8.28,0 15,-6.88 15,-15.36 0,-8.48 -6.72,-15.36 -15,-15.36 -8.28,0 -15,6.88 -15,15.36 z" /><path
       inkscape:connector-curvature="0"
       id="path32"
       style="fill:none;stroke:#000000;stroke-width:0.96;stroke-linecap:butt;stroke-linejoin:miter;stroke-miterlimit:10;stroke-dasharray:none;stroke-opacity:1"
       d="m 169.56,343.08 c 0,8.48 6.72,15.36 15,15.36 8.28,0 15,-6.88 15,-15.36 0,-8.48 -6.72,-15.36 -15,-15.36 -8.28,0 -15,6.88 -15,15.36 z" /><path
       inkscape:connector-curvature="0"
       id="path34"
       style="fill:none;stroke:#000000;stroke-width:0.96;stroke-linecap:butt;stroke-linejoin:miter;stroke-miterlimit:10;stroke-dasharray:none;stroke-opacity:1"
       d="m 361.56,343.86 c 0,8.52 6.72,15.42 15,15.42 8.28,0 15,-6.9 15,-15.42 0,-8.52 -6.72,-15.42 -15,-15.42 -8.28,0 -15,6.9 -15,15.42 z" /><path
       inkscape:connector-curvature="0"
       id="path36"
       style="fill:none;stroke:#000000;stroke-width:0.96;stroke-linecap:butt;stroke-linejoin:miter;stroke-miterlimit:10;stroke-dasharray:none;stroke-opacity:1"
       d="m 216.72,260.64 c 0,8.48 6.72,15.36 15,15.36 8.28,0 15,-6.88 15,-15.36 0,-8.48 -6.72,-15.36 -15,-15.36 -8.28,0 -15,6.88 -15,15.36 z" /><path
       inkscape:connector-curvature="0"
       id="path38"
       style="fill:none;stroke:#000000;stroke-width:0.96;stroke-linecap:butt;stroke-linejoin:miter;stroke-miterlimit:10;stroke-dasharray:none;stroke-opacity:1"
       d="m 312,260.64 c 0,8.48 6.72,15.36 15,15.36 8.28,0 15,-6.88 15,-15.36 0,-8.48 -6.72,-15.36 -15,-15.36 -8.28,0 -15,6.88 -15,15.36 z" /><path
       inkscape:connector-curvature="0"
       id="path40"
       style="fill:none;stroke:#000000;stroke-width:0.96;stroke-linecap:butt;stroke-linejoin:miter;stroke-miterlimit:10;stroke-dasharray:none;stroke-opacity:1"
       d="m 246.84,384 c 0,5.17 4.06,9.36 9.06,9.36 5,0 9.06,-4.19 9.06,-9.36 0,-5.17 -4.06,-9.36 -9.06,-9.36 -5,0 -9.06,4.19 -9.06,9.36 z" /><path
       inkscape:connector-curvature="0"
       id="path42"
       style="fill:none;stroke:#000000;stroke-width:0.96;stroke-linecap:butt;stroke-linejoin:miter;stroke-miterlimit:10;stroke-dasharray:none;stroke-opacity:1"
       d="m 295.08,384.84 c 0,5.17 4.06,9.36 9.06,9.36 5,0 9.06,-4.19 9.06,-9.36 0,-5.17 -4.06,-9.36 -9.06,-9.36 -5,0 -9.06,4.19 -9.06,9.36 z" /><path
       inkscape:connector-curvature="0"
       id="path44"
       style="fill:none;stroke:#000000;stroke-width:0.96;stroke-linecap:butt;stroke-linejoin:miter;stroke-miterlimit:10;stroke-dasharray:none;stroke-opacity:1"
       d="m 318.96,342.42 c 0,5.2 4.06,9.42 9.06,9.42 5,0 9.06,-4.22 9.06,-9.42 0,-5.2 -4.06,-9.42 -9.06,-9.42 -5,0 -9.06,4.22 -9.06,9.42 z" /><path
       inkscape:connector-curvature="0"
       id="path46"
       style="fill:none;stroke:#000000;stroke-width:0.96;stroke-linecap:butt;stroke-linejoin:miter;stroke-miterlimit:10;stroke-dasharray:none;stroke-opacity:1"
       d="m 295.08,301.32 c 0,5.17 4.06,9.36 9.06,9.36 5,0 9.06,-4.19 9.06,-9.36 0,-5.17 -4.06,-9.36 -9.06,-9.36 -5,0 -9.06,4.19 -9.06,9.36 z" /><path
       inkscape:connector-curvature="0"
       id="path48"
       style="fill:none;stroke:#000000;stroke-width:0.96;stroke-linecap:butt;stroke-linejoin:miter;stroke-miterlimit:10;stroke-dasharray:none;stroke-opacity:1"
       d="m 247.44,301.32 c 0,5.17 4.06,9.36 9.06,9.36 5,0 9.06,-4.19 9.06,-9.36 0,-5.17 -4.06,-9.36 -9.06,-9.36 -5,0 -9.06,4.19 -9.06,9.36 z" /><path
       inkscape:connector-curvature="0"
       id="path50"
       style="fill:none;stroke:#000000;stroke-width:0.96;stroke-linecap:butt;stroke-linejoin:miter;stroke-miterlimit:10;stroke-dasharray:none;stroke-opacity:1"
       d="m 223.56,342.42 c 0,5.2 4.06,9.42 9.06,9.42 5,0 9.06,-4.22 9.06,-9.42 0,-5.2 -4.06,-9.42 -9.06,-9.42 -5,0 -9.06,4.22 -9.06,9.42 z" /><path
       inkscape:connector-curvature="0"
       id="path52"
       style="fill:none;stroke:#000000;stroke-width:0.96;stroke-linecap:butt;stroke-linejoin:miter;stroke-miterlimit:10;stroke-dasharray:none;stroke-opacity:1"
       d="m 201,384.54 c 0,3.88 3.04,7.02 6.78,7.02 3.74,0 6.78,-3.14 6.78,-7.02 0,-3.88 -3.04,-7.02 -6.78,-7.02 -3.74,0 -6.78,3.14 -6.78,7.02 z" /><path
       inkscape:connector-curvature="0"
       id="path54"
       style="fill:none;stroke:#000000;stroke-width:0.96;stroke-linecap:butt;stroke-linejoin:miter;stroke-miterlimit:10;stroke-dasharray:none;stroke-opacity:1"
       d="m 273.48,426 c 0,3.91 3.06,7.08 6.84,7.08 3.78,0 6.84,-3.17 6.84,-7.08 0,-3.91 -3.06,-7.08 -6.84,-7.08 -3.78,0 -6.84,3.17 -6.84,7.08 z" /><path
       inkscape:connector-curvature="0"
       id="path56"
       style="fill:none;stroke:#000000;stroke-width:0.96;stroke-linecap:butt;stroke-linejoin:miter;stroke-miterlimit:10;stroke-dasharray:none;stroke-opacity:1"
       d="m 344.52,384.12 c 0,3.91 3.06,7.08 6.84,7.08 3.78,0 6.84,-3.17 6.84,-7.08 0,-3.91 -3.06,-7.08 -6.84,-7.08 -3.78,0 -6.84,3.17 -6.84,7.08 z" /><path
       inkscape:connector-curvature="0"
       id="path58"
       style="fill:none;stroke:#000000;stroke-width:0.96;stroke-linecap:butt;stroke-linejoin:miter;stroke-miterlimit:10;stroke-dasharray:none;stroke-opacity:1"
       d="m 344.52,301.44 c 0,3.91 3.06,7.08 6.84,7.08 3.78,0 6.84,-3.17 6.84,-7.08 0,-3.91 -3.06,-7.08 -6.84,-7.08 -3.78,0 -6.84,3.17 -6.84,7.08 z" /><path
       inkscape:connector-curvature="0"
       id="path60"
       style="fill:none;stroke:#000000;stroke-width:0.96;stroke-linecap:butt;stroke-linejoin:miter;stroke-miterlimit:10;stroke-dasharray:none;stroke-opacity:1"
       d="m 201,301.92 c 0,3.91 3.06,7.08 6.84,7.08 3.78,0 6.84,-3.17 6.84,-7.08 0,-3.91 -3.06,-7.08 -6.84,-7.08 -3.78,0 -6.84,3.17 -6.84,7.08 z" /><path
       inkscape:connector-curvature="0"
       id="path62"
       style="fill:none;stroke:#000000;stroke-width:0.96;stroke-linecap:butt;stroke-linejoin:miter;stroke-miterlimit:10;stroke-dasharray:none;stroke-opacity:1"
       d="m 273,259.92 c 0,3.91 3.06,7.08 6.84,7.08 3.78,0 6.84,-3.17 6.84,-7.08 0,-3.91 -3.06,-7.08 -6.84,-7.08 -3.78,0 -6.84,3.17 -6.84,7.08 z" /><path
       inkscape:connector-curvature="0"
       id="path64"
       style="fill:none;stroke:#000000;stroke-width:0.96;stroke-linecap:butt;stroke-linejoin:miter;stroke-miterlimit:10;stroke-dasharray:none;stroke-opacity:1"
       d="m 276.6,342.42 c 0,2.05375 1.67,3.72 3.72,3.72 2.05,0 3.72,-1.66625 3.72,-3.72 0,-2.05375 -1.67,-3.72 -3.72,-3.72 -2.05,0 -3.72,1.66625 -3.72,3.72 z" /></g></svg>
